<?xml version="1.0" encoding="UTF-8" standalone="no"?>
<!DOCTYPE svg PUBLIC "-//W3C//DTD SVG 1.1//EN" "http://www.w3.org/Graphics/SVG/1.1/DTD/svg11.dtd">
<svg width="100%" height="100%" viewBox="0 0 24 24" version="1.1" xmlns="http://www.w3.org/2000/svg" xmlns:xlink="http://www.w3.org/1999/xlink" xml:space="preserve" xmlns:serif="http://www.serif.com/" style="fill-rule:evenodd;clip-rule:evenodd;stroke-linejoin:round;stroke-miterlimit:2;">
    <g transform="matrix(0.531234,0,0,0.531234,125.523,132.703)">
        <g id="g2920" transform="matrix(0.203282,0,0,-0.203282,-213.701,-245.909)">
            <path id="path2922" d="M0,0C0,0 -4.736,-2.003 -4.736,-4.144L-4.736,-121.741C-4.736,-123.869 0.056,-125.883 0.056,-125.883C0.056,-125.883 4.792,-123.879 4.792,-121.741L4.792,-4.144C4.792,-2.014 0,0 0,0" style="fill:rgb(250,178,11);fill-rule:nonzero;"/>
        </g>
        <g id="g2924" transform="matrix(0.203282,0,0,-0.203282,-213.835,-245.591)">
            <path id="path2926" d="M0,0L0.657,1.56L0,0ZM-2.36,-120.204C-2.323,-120.279 -2.231,-120.418 -2.085,-120.577C-1.791,-120.899 -1.292,-121.29 -0.767,-121.625C-0.235,-121.967 0.303,-122.253 0.706,-122.453C1.005,-122.305 1.378,-122.108 1.771,-121.873C2.686,-121.361 3.625,-120.527 3.73,-120.215C3.767,-120.185 3.757,-120.181 3.757,-120.181L3.757,-2.609C3.753,-2.597 3.746,-2.58 3.733,-2.557C3.696,-2.479 3.601,-2.344 3.456,-2.184C3.16,-1.861 2.662,-1.472 2.14,-1.136C1.606,-0.793 1.066,-0.506 0.662,-0.307C0.365,-0.454 -0.008,-0.65 -0.4,-0.885C-1.315,-1.4 -2.255,-2.231 -2.36,-2.543C-2.398,-2.577 -2.387,-2.581 -2.384,-2.581L-2.384,-62.045C-2.387,-75.26 -2.387,-87.437 -2.384,-87.437L-2.387,-120.146C-2.383,-120.155 -2.375,-120.174 -2.36,-120.204M0.058,-125.881C0.007,-125.858 -1.255,-125.335 -2.598,-124.474C-3.865,-123.556 -5.589,-122.564 -5.771,-120.181L-5.771,-2.581C-5.595,-0.21 -3.886,0.8 -2.632,1.712C-1.302,2.574 -0.055,3.096 -0.003,3.123L0.654,3.401L1.313,3.123C1.367,3.1 2.625,2.574 3.967,1.712C5.236,0.797 6.961,-0.197 7.145,-2.581L7.145,-62.045C7.142,-75.26 7.142,-87.437 7.145,-87.437L7.142,-120.181C6.969,-122.552 5.256,-123.559 4.004,-124.474C2.672,-125.335 1.424,-125.858 1.374,-125.881L0.715,-126.159L0.058,-125.881Z" style="fill:rgb(250,178,11);fill-rule:nonzero;"/>
        </g>
        <g id="g2928" transform="matrix(0.203282,0,0,-0.203282,-222.427,-235.432)">
            <path id="path2930" d="M0,0C0,0 -0.633,-5.104 1.219,-6.175L29.573,-22.543C41.015,-29.15 51.562,-35.239 51.562,-35.239L79.916,-51.608C81.759,-52.674 85.899,-49.53 85.899,-49.53C85.899,-49.53 86.533,-44.427 84.68,-43.356L56.325,-26.985C56.325,-26.985 45.78,-20.896 34.336,-14.291L5.985,2.079C4.139,3.144 0,0 0,0" style="fill:rgb(250,178,11);fill-rule:nonzero;"/>
        </g>
        <g id="g2932" transform="matrix(0.203282,0,0,-0.203282,-205.993,-225.24)">
            <path id="path2934" d="M0,0C0.397,-0.033 1.567,0.398 2.451,0.929C2.832,1.145 3.171,1.357 3.437,1.535C3.454,1.81 3.469,2.146 3.469,2.518C3.526,3.687 3.176,5.163 2.993,5.313L2.992,5.313L2.969,5.326L-25.366,21.684C-25.386,21.696 -35.911,27.771 -47.354,34.378L-75.677,50.731C-75.689,50.735 -75.726,50.741 -75.783,50.741C-76.185,50.775 -77.354,50.344 -78.238,49.813C-78.619,49.598 -78.958,49.383 -79.223,49.205C-79.24,48.931 -79.255,48.592 -79.255,48.222C-79.314,47.049 -78.959,45.567 -78.777,45.424L-78.776,45.426L-50.421,29.059C-38.981,22.451 -28.457,16.375 -28.433,16.361L-0.104,0.007C-0.085,0.004 -0.052,0 0,0M-1.772,-2.941L-30.127,13.43C-30.127,13.43 -40.675,19.517 -52.115,26.124L-80.469,42.495C-81.68,43.232 -82.088,44.362 -82.343,45.341C-82.588,46.344 -82.639,47.357 -82.642,48.222C-82.642,49.402 -82.526,50.299 -82.523,50.347L-82.435,51.054L-81.867,51.482C-81.697,51.51 -78.898,53.986 -75.783,54.128C-75.225,54.128 -74.6,54.02 -74.011,53.68L-45.661,37.309C-34.214,30.705 -23.669,24.614 -23.672,24.614L4.683,8.243C5.896,7.506 6.302,6.377 6.556,5.4C6.801,4.397 6.852,3.384 6.855,2.518C6.855,1.338 6.743,0.439 6.736,0.395L6.651,-0.313L6.08,-0.744C5.91,-0.774 3.108,-3.244 0,-3.387C-0.555,-3.387 -1.18,-3.281 -1.772,-2.941" style="fill:rgb(250,178,11);fill-rule:nonzero;"/>
        </g>
        <g id="g2936" transform="matrix(0.203282,0,0,-0.203282,-204.965,-235.432)">
            <path id="path2938" d="M0,0C0,0 0.634,-5.104 -1.219,-6.175L-29.572,-22.543C-41.015,-29.15 -51.561,-35.239 -51.561,-35.239L-79.914,-51.608C-81.759,-52.674 -85.899,-49.53 -85.899,-49.53C-85.899,-49.53 -86.532,-44.427 -84.68,-43.356L-56.325,-26.985C-56.325,-26.985 -45.78,-20.896 -34.336,-14.291L-5.983,2.079C-4.139,3.144 0,0 0,0" style="fill:rgb(250,178,11);fill-rule:nonzero;"/>
        </g>
        <g id="g2940" transform="matrix(0.203282,0,0,-0.203282,-206.015,-235.553)">
            <path id="path2942" d="M0,0L0,0.002C0,0.002 -0.001,0.002 0,0M-78.132,-49.805C-77.245,-50.335 -76.079,-50.768 -75.678,-50.734C-75.624,-50.734 -75.586,-50.729 -75.57,-50.726L-47.242,-34.369C-47.221,-34.359 -36.696,-28.283 -25.253,-21.676L3.074,-5.322L3.074,-5.321C3.084,-5.311 3.111,-5.277 3.146,-5.216C3.214,-5.101 3.306,-4.873 3.373,-4.587C3.517,-4.012 3.577,-3.209 3.574,-2.512C3.574,-2.143 3.562,-1.807 3.545,-1.531C3.279,-1.354 2.939,-1.137 2.558,-0.922C1.674,-0.391 0.503,0.045 0.105,0.011C0.054,0.011 0.022,0.006 0.007,0.002L-28.324,-16.356C-39.771,-22.961 -50.292,-29.038 -50.316,-29.051L-78.65,-45.408C-78.66,-45.418 -78.684,-45.448 -78.718,-45.511C-78.789,-45.625 -78.877,-45.851 -78.945,-46.136C-79.092,-46.711 -79.149,-47.514 -79.146,-48.213C-79.146,-48.584 -79.133,-48.92 -79.116,-49.195C-78.851,-49.373 -78.513,-49.59 -78.132,-49.805M-75.678,-54.117C-78.789,-53.975 -81.588,-51.506 -81.758,-51.479L-82.326,-51.047L-82.414,-50.34C-82.421,-50.295 -82.533,-49.396 -82.533,-48.213C-82.533,-47.35 -82.479,-46.336 -82.238,-45.33C-81.982,-44.354 -81.575,-43.225 -80.363,-42.486L-52.006,-26.117C-52.006,-26.117 -41.464,-20.029 -30.018,-13.422L-1.67,2.945C-1.078,3.285 -0.452,3.397 0.105,3.397C3.217,3.252 6.02,0.779 6.188,0.749L5.165,-0.598L6.188,0.749L6.757,0.32L6.846,-0.391C6.849,-0.436 6.961,-1.332 6.961,-2.512C6.961,-3.377 6.906,-4.386 6.665,-5.393C6.407,-6.369 6.002,-7.498 4.791,-8.239L-23.56,-24.607C-35.003,-31.215 -45.548,-37.305 -45.552,-37.305L-73.906,-53.675C-74.492,-54.01 -75.104,-54.117 -75.652,-54.117L-75.678,-54.117Z" style="fill:rgb(250,178,11);fill-rule:nonzero;"/>
        </g>
    </g>
    <g id="g2944" transform="matrix(-7.04179e-18,-0.0452583,-0.0452583,7.04179e-18,12.0053,21.1233)">
        <path id="path2946" d="M0,0C0,23.059 1.987,44.648 5.964,64.738C9.938,84.83 15.961,104.615 24.068,124.092C32.162,143.567 42.175,163.082 54.091,182.647C61.269,194.565 67.63,202.874 72.194,208.425C76.909,214.162 81.902,220.225 88.776,220.225C96.269,220.225 100.006,218.166 100.006,214.041C100.006,212.661 96.489,204.379 89.463,189.172C82.43,173.974 75.824,158.048 69.64,141.397C63.449,124.737 57.719,103.961 52.462,79.06C47.181,54.16 44.551,27.799 44.551,0C44.551,-27.502 47.14,-53.553 52.338,-78.157C57.531,-102.748 64.89,-124.066 71.54,-142.09C78.19,-160.113 83.388,-176.279 90.029,-190.56C96.68,-204.841 100.006,-212.596 100.006,-213.816C100.006,-217.941 96.269,-220 88.776,-220C81.75,-220 76.929,-212.98 72.194,-207.635C67.456,-202.28 61.424,-193.735 54.091,-181.959C42.02,-161.804 32.046,-142.361 24.179,-123.645C16.308,-104.926 10.321,-85.481 6.196,-65.313C2.062,-45.15 0,-23.377 0,0" style="fill:rgb(20,118,198);fill-rule:nonzero;"/>
    </g>
</svg>
