<?xml version="1.0" encoding="UTF-8" standalone="no"?>
<!-- Created with Inkscape (http://www.inkscape.org/) -->

<svg
   xmlns:dc="http://purl.org/dc/elements/1.1/"
   xmlns:cc="http://creativecommons.org/ns#"
   xmlns:rdf="http://www.w3.org/1999/02/22-rdf-syntax-ns#"
   xmlns:svg="http://www.w3.org/2000/svg"
   xmlns="http://www.w3.org/2000/svg"
   xmlns:sodipodi="http://sodipodi.sourceforge.net/DTD/sodipodi-0.dtd"
   xmlns:inkscape="http://www.inkscape.org/namespaces/inkscape"
   id="svg2816"
   version="1.1"
   inkscape:version="0.47 r22583"
   width="2125.9875"
   height="815"
   xml:space="preserve"
   sodipodi:docname="amu.pdf"><metadata
     id="metadata2822"><rdf:RDF><cc:Work
         rdf:about=""><dc:format>image/svg+xml</dc:format><dc:type
           rdf:resource="http://purl.org/dc/dcmitype/StillImage" /><dc:title></dc:title></cc:Work></rdf:RDF></metadata><defs
     id="defs2820"><inkscape:perspective
       sodipodi:type="inkscape:persp3d"
       inkscape:vp_x="0 : 0.5 : 1"
       inkscape:vp_y="0 : 1000 : 0"
       inkscape:vp_z="1 : 0.5 : 1"
       inkscape:persp3d-origin="0.5 : 0.33333333 : 1"
       id="perspective2824" /><clipPath
       clipPathUnits="userSpaceOnUse"
       id="clipPath2846"><path
         d="m 0,652 1700.787,0 0,-652 L 0,0 0,652 z"
         id="path2848" /></clipPath></defs><sodipodi:namedview
     pagecolor="#ffffff"
     bordercolor="#666666"
     borderopacity="1"
     objecttolerance="10"
     gridtolerance="10"
     guidetolerance="10"
     inkscape:pageopacity="0"
     inkscape:pageshadow="2"
     inkscape:window-width="1366"
     inkscape:window-height="706"
     id="namedview2818"
     showgrid="false"
     inkscape:zoom="0.25399961"
     inkscape:cx="1062.9938"
     inkscape:cy="407.5"
     inkscape:window-x="-8"
     inkscape:window-y="-8"
     inkscape:window-maximized="1"
     inkscape:current-layer="g2826" /><g
     id="g2826"
     inkscape:groupmode="layer"
     inkscape:label="amu"
     transform="matrix(1.25,0,0,-1.25,0,815)"><g
       id="g2828"
       transform="translate(395.7476,457.7734)"><path
         d="m 0,0 -25.594,-79.342 51.174,0 L 0,0 z m 60.847,-129.87 -18.712,0 -11.827,34.403 -60.846,0 -11.612,-34.403 -18.695,0 48.371,143.191 24.941,0 48.38,-143.191 z"
         style="fill:#231f20;fill-opacity:1;fill-rule:nonzero;stroke:none"
         id="path2830" /></g><path
       d="m 479.811,432.609 18.057,0 0,-104.706 -18.057,0 0,104.706 z m 0,42.79 18.057,0 0,-26.011 -18.057,0 0,26.011 z"
       style="fill:#231f20;fill-opacity:1;fill-rule:nonzero;stroke:none"
       id="path2832" /><g
       id="g2834"
       transform="translate(518.9429,327.9033)"><path
         d="m 0,0 34.396,52.684 -33.758,52.022 18.712,0 24.933,-38.484 24.948,38.484 18.704,0 L 53.969,52.684 88.575,0 69.663,0 44.283,38.917 19.135,0 0,0 z"
         style="fill:#231f20;fill-opacity:1;fill-rule:nonzero;stroke:none"
         id="path2836" /></g><g
       id="g2838"
       transform="translate(754.0352,444.0059)"><path
         d="m 0,0 -2.795,-116.103 -17.842,0 4.944,143.192 23.439,0 41.272,-110.728 41.288,110.728 23.424,0 4.953,-143.192 -17.843,0 L 98.037,0 61.493,-97.607 l -24.941,0 L 0,0 z"
         style="fill:#231f20;fill-opacity:1;fill-rule:nonzero;stroke:none"
         id="path2840" /></g><g
       id="g2842"><g
         id="g2844"
         clip-path="url(#clipPath2846)"><g
           id="g2850"
           transform="translate(952.9902,370.2617)"><path
             d="m 0,0 -26.673,0 c -11.172,0 -15.262,-3.441 -15.262,-13.977 0,-10.748 1.94,-15.044 14.839,-15.044 9.033,0 19.133,3.433 27.096,8.592 L 0,0 z m 18.049,-42.358 -15.261,0 -1.078,7.747 c -9.241,-6.453 -21.283,-9.896 -33.966,-9.896 -19.566,0 -27.736,11.612 -27.736,30.101 0,21.714 10.966,29.459 32.041,29.459 l 27.951,0 0,16.341 c 0,13.113 -5.806,17.633 -22.791,17.633 -10.103,0 -19.897,-1.017 -28.061,-2.733 L -52.791,60.7 c 9.886,2.579 19.897,3.804 31.069,3.804 29.885,0 39.771,-11.611 39.771,-33.974 l 0,-72.888 z"
             style="fill:#231f20;fill-opacity:1;fill-rule:nonzero;stroke:none"
             id="path2852" /></g><g
           id="g2854"
           transform="translate(1047.1152,418.2109)"><path
             d="m 0,0 c -9.892,-4.729 -21.289,-12.043 -29.883,-18.065 l 0,-72.243 -18.063,0 0,104.706 15.7,0 1.07,-14.614 c 7.745,6.021 18.495,12.466 28.815,16.771 L 0,0 z"
             style="fill:#231f20;fill-opacity:1;fill-rule:nonzero;stroke:none"
             id="path2856" /></g><g
           id="g2858"
           transform="translate(1094.4189,325.7549)"><path
             d="m 0,0 c -10.749,0 -24.941,2.364 -33.326,5.591 l 2.371,14.191 c 9.023,-2.58 20.851,-4.297 29.883,-4.297 16.557,0 19.345,3.003 19.345,14.184 0,11.18 -0.856,12.475 -21.931,17.633 -26.01,6.453 -28.375,11.828 -28.375,33.542 0,19.35 8.602,28.167 36.121,28.167 10.103,0 21.068,-1.293 29.671,-3.657 L 32.462,90.515 c -8.808,1.725 -20.42,3.019 -29.02,3.019 -15.478,0 -17.634,-3.658 -17.634,-13.121 0,-11.611 0.214,-13.76 17.849,-18.057 C 33.759,54.832 36.12,51.167 36.12,30.315 36.12,9.896 29.893,0 0,0"
             style="fill:#231f20;fill-opacity:1;fill-rule:nonzero;stroke:none"
             id="path2860" /></g><g
           id="g2862"
           transform="translate(1170.0029,388.3184)"><path
             d="m 0,0 44.938,0 0,8.609 c 0,14.615 -4.944,22.792 -21.931,22.792 C 6.02,31.401 0,23.224 0,8.609 L 0,0 z m 24.941,-47.078 c 10.317,0 21.714,1.925 33.112,4.943 l 2.361,-14.408 c -9.886,-3.656 -23.86,-6.02 -36.974,-6.02 -30.964,0 -41.499,14.838 -41.499,38.485 l 0,31.394 c 0,21.713 9.89,39.131 41.066,39.131 30.954,0 39.348,-17.848 39.348,-39.562 l 0,-21.93 -62.355,0 0,-8.817 c 0,-16.556 4.512,-23.216 24.941,-23.216"
             style="fill:#231f20;fill-opacity:1;fill-rule:nonzero;stroke:none"
             id="path2864" /></g><path
           d="m 1256.02,432.609 18.065,0 0,-104.706 -18.065,0 0,104.706 z m 0,42.79 18.065,0 0,-26.011 -18.065,0 0,26.011 z"
           style="fill:#231f20;fill-opacity:1;fill-rule:nonzero;stroke:none"
           id="path2866" /><g
           id="g2868"
           transform="translate(1308.4824,327.9033)"><path
             d="M 0,0 0,147.496 18.055,150.075 18.055,0 0,0 z"
             style="fill:#231f20;fill-opacity:1;fill-rule:nonzero;stroke:none"
             id="path2870" /></g><g
           id="g2872"
           transform="translate(1360.9414,327.9033)"><path
             d="M 0,0 0,147.496 18.066,150.075 18.066,0 0,0 z"
             style="fill:#231f20;fill-opacity:1;fill-rule:nonzero;stroke:none"
             id="path2874" /></g><g
           id="g2876"
           transform="translate(1418.9102,388.3184)"><path
             d="m 0,0 44.938,0 0,8.609 c 0,14.615 -4.944,22.792 -21.929,22.792 C 6.021,31.401 0,23.224 0,8.609 L 0,0 z m 24.948,-47.078 c 10.318,0 21.707,1.925 33.103,4.943 l 2.365,-14.408 c -9.888,-3.656 -23.863,-6.02 -36.978,-6.02 -30.961,0 -41.495,14.838 -41.495,38.485 l 0,31.394 c 0,21.713 9.886,39.131 41.066,39.131 30.961,0 39.346,-17.848 39.346,-39.562 l 0,-21.93 -62.355,0 0,-8.817 c 0,-16.556 4.521,-23.216 24.948,-23.216"
             style="fill:#231f20;fill-opacity:1;fill-rule:nonzero;stroke:none"
             id="path2878" /></g><g
           id="g2880"
           transform="translate(582.6919,287.1934)"><path
             d="m 0,0 0,-83.793 c 0,-7.662 4.042,-10.426 11.273,-10.426 8.5,0 26.796,5.106 39.77,11.912 l 0,82.307 12.336,0 0,-103.575 -10.842,0 -0.853,9.356 C 40.619,-99.524 22.115,-105.7 9.579,-105.7 c -16.171,0 -21.915,9.148 -21.915,23.393 L -12.336,0 0,0 z"
             style="fill:#4dc6f4;fill-opacity:1;fill-rule:nonzero;stroke:none"
             id="path2882" /></g><g
           id="g2884"
           transform="translate(748.3066,183.6182)"><path
             d="m 0,0 0,83.794 c 0,7.653 -4.043,10.425 -11.273,10.425 -8.502,0 -26.797,-5.113 -39.764,-11.919 l 0,-82.3 -12.352,0 0,103.575 10.859,0 0.846,-9.356 c 11.057,5.313 29.569,11.481 42.104,11.481 16.17,0 21.915,-9.148 21.915,-23.4 L 12.335,0 0,0 z"
             style="fill:#4dc6f4;fill-opacity:1;fill-rule:nonzero;stroke:none"
             id="path2886" /></g><path
           d="m 792.967,252.696 12.335,0 0,-69.078 -12.335,0 0,69.078 z m 0,34.967 12.335,0 0,-22.747 -12.335,0 0,22.747 z"
           style="fill:#4dc6f4;fill-opacity:1;fill-rule:nonzero;stroke:none"
           id="path2888" /><g
           id="g2890"
           transform="translate(884.168,183.6182)"><path
             d="m 0,0 -18.929,0 -35.096,103.575 12.551,0 31.902,-94.849 32.117,94.849 12.535,0 L 0,0 z"
             style="fill:#4dc6f4;fill-opacity:1;fill-rule:nonzero;stroke:none"
             id="path2892" /></g><g
           id="g2894"
           transform="translate(947.6309,242.7402)"><path
             d="m 0,0 51.884,0 0,9.363 c 0,17.434 -6.16,26.581 -25.519,26.581 C 7.015,35.944 0,26.797 0,9.363 L 0,0 z m 27.012,-50.396 c 10.627,0 22.547,2.116 32.742,4.888 l 2.14,-9.994 c -9.579,-3.404 -23.192,-5.745 -35.744,-5.745 -29.137,0 -38.485,15.101 -38.485,37.639 l 0,32.54 c 0,21.268 9.564,37.646 38.7,37.646 29.139,0 37.654,-16.378 37.654,-37.646 l 0,-19.989 -64.019,0 0,-12.967 c 0,-18.503 6.377,-26.372 27.012,-26.372"
             style="fill:#4dc6f4;fill-opacity:1;fill-rule:nonzero;stroke:none"
             id="path2896" /></g><g
           id="g2898"
           transform="translate(1087.374,277.1904)"><path
             d="m 0,0 c -10.842,-4.682 -22.749,-12.552 -32.757,-19.136 l 0,-74.436 -12.32,0 0,103.575 11.056,0 0.632,-15.747 c 11.057,7.238 22.114,14.261 31.91,17.872 L 0,0 z"
             style="fill:#4dc6f4;fill-opacity:1;fill-rule:nonzero;stroke:none"
             id="path2900" /></g><g
           id="g2902"
           transform="translate(1138.6855,181.4932)"><path
             d="m 0,0 c -10.426,0 -22.745,2.125 -30.415,5.313 l 2.126,9.995 c 8.931,-2.756 19.772,-4.25 27.429,-4.25 19.14,0 22.976,3.619 22.976,16.801 0,14.893 -0.416,16.378 -24.024,21.908 -25.95,6.167 -28.074,12.543 -28.074,31.47 0,17.217 8.285,26.588 33.801,26.588 9.579,0 21.268,-1.27 29.354,-3.611 L 31.896,93.788 c -8.288,1.693 -20.407,2.979 -28.923,2.979 -18.078,0 -20.621,-4.688 -20.621,-15.954 0,-14.246 0.846,-15.731 19.973,-20.628 C 32.743,52.53 34.45,47.642 34.45,28.283 34.45,9.571 27.644,0 0,0"
             style="fill:#4dc6f4;fill-opacity:1;fill-rule:nonzero;stroke:none"
             id="path2904" /></g><path
           d="m 1203.074,252.696 12.337,0 0,-69.078 -12.337,0 0,69.078 z m 0,34.967 12.337,0 0,-22.747 -12.337,0 0,22.747 z"
           style="fill:#4dc6f4;fill-opacity:1;fill-rule:nonzero;stroke:none"
           id="path2906" /><g
           id="g2908"
           transform="translate(1304.5332,184.7188)"><path
             d="m 0,0 c -5.947,-2.348 -11.798,-3.226 -19.253,-3.226 -16.368,0 -23.393,5.96 -23.393,22.33 l 0,72.736 -19.987,0 0,10.635 19.987,0 0,20.904 12.353,1.695 0,-22.599 28.213,0 -1.277,-10.635 -26.936,0 0,-71.457 c 0,-9.147 1.264,-12.983 11.903,-12.983 5.729,0 9.886,0.262 16.048,2.172 L 0,0 z"
             style="fill:#4dc6f4;fill-opacity:1;fill-rule:nonzero;stroke:none"
             id="path2910" /></g><g
           id="g2912"
           transform="translate(1334.3301,242.7402)"><path
             d="m 0,0 51.901,0 0,9.363 c 0,17.434 -6.176,26.581 -25.535,26.581 C 7.024,35.944 0,26.797 0,9.363 L 0,0 z m 27.013,-50.396 c 10.627,0 22.547,2.116 32.742,4.888 l 2.14,-9.994 c -9.579,-3.404 -23.192,-5.745 -35.73,-5.745 -29.152,0 -38.499,15.101 -38.499,37.639 l 0,32.54 c 0,21.268 9.578,37.646 38.7,37.646 29.139,0 37.654,-16.378 37.654,-37.646 l 0,-19.989 -64.02,0 0,-12.967 c 0,-18.503 6.376,-26.372 27.013,-26.372"
             style="fill:#4dc6f4;fill-opacity:1;fill-rule:nonzero;stroke:none"
             id="path2914" /></g><g
           id="g2916"
           transform="translate(1347.252,306.251)"><path
             d="M 0,0 C 9.549,3.079 20.807,6.807 31.495,10.911 L 35.175,0.323 C 24.703,-3.835 13.074,-7.247 3.42,-9.856 L 0,0 z"
             style="fill:#4dc6f4;fill-opacity:1;fill-rule:nonzero;stroke:none"
             id="path2918" /></g><g
           id="g2920"
           transform="translate(665.5273,454.5464)"><path
             d="m 0,0 c 0,0 -4.736,-2.003 -4.736,-4.144 l 0,-59.464 0,-25.392 0,-32.741 c 0,-2.128 4.792,-4.142 4.792,-4.142 0,0 4.736,2.004 4.736,4.142 l 0,32.741 0,25.392 0,59.464 C 4.792,-2.014 0,0 0,0"
             style="fill:#fab20b;fill-opacity:1;fill-rule:nonzero;stroke:none"
             id="path2922" /></g><g
           id="g2924"
           transform="translate(664.8691,452.9854)"><path
             d="M 0,0 0.657,1.56 0,0 z m -2.36,-120.204 c 0.037,-0.075 0.129,-0.214 0.275,-0.373 0.294,-0.322 0.793,-0.713 1.318,-1.048 0.532,-0.342 1.07,-0.628 1.473,-0.828 0.299,0.148 0.672,0.345 1.065,0.58 0.915,0.512 1.854,1.346 1.959,1.658 0.037,0.03 0.027,0.034 0.027,0.034 l 0,32.744 0,25.392 0,59.436 C 3.753,-2.597 3.746,-2.58 3.733,-2.557 3.696,-2.479 3.601,-2.344 3.456,-2.184 3.16,-1.861 2.662,-1.472 2.14,-1.136 1.606,-0.793 1.066,-0.506 0.662,-0.307 0.365,-0.454 -0.008,-0.65 -0.4,-0.885 -1.315,-1.4 -2.255,-2.231 -2.36,-2.543 -2.398,-2.577 -2.387,-2.581 -2.384,-2.581 l 0,-59.464 c -0.003,-13.215 -0.003,-25.392 0,-25.392 l -0.003,-32.709 c 0.004,-0.009 0.012,-0.028 0.027,-0.058 m 2.418,-5.677 c -0.051,0.023 -1.313,0.546 -2.656,1.407 -1.267,0.918 -2.991,1.91 -3.173,4.293 l 0,32.744 0,25.392 0,59.464 c 0.176,2.371 1.885,3.381 3.139,4.293 1.33,0.862 2.577,1.384 2.629,1.411 L 0.654,3.401 1.313,3.123 C 1.367,3.1 2.625,2.574 3.967,1.712 5.236,0.797 6.961,-0.197 7.145,-2.581 l 0,-59.464 c -0.003,-13.215 -0.003,-25.392 0,-25.392 l -0.003,-32.744 c -0.173,-2.371 -1.886,-3.378 -3.138,-4.293 -1.332,-0.861 -2.58,-1.384 -2.63,-1.407 l -0.659,-0.278 -0.657,0.278 z"
             style="fill:#fab20b;fill-opacity:1;fill-rule:nonzero;stroke:none"
             id="path2926" /></g><g
           id="g2928"
           transform="translate(622.606,403.0068)"><path
             d="m 0,0 c 0,0 -0.633,-5.104 1.219,-6.175 l 28.354,-16.368 c 11.442,-6.607 21.989,-12.696 21.989,-12.696 l 28.354,-16.369 c 1.843,-1.066 5.983,2.078 5.983,2.078 0,0 0.634,5.103 -1.219,6.174 l -28.355,16.371 c 0,0 -10.545,6.089 -21.989,12.694 L 5.985,2.079 C 4.139,3.144 0,0 0,0"
             style="fill:#fab20b;fill-opacity:1;fill-rule:nonzero;stroke:none"
             id="path2930" /></g><g
           id="g2932"
           transform="translate(703.4473,352.873)"><path
             d="M 0,0 C 0.397,-0.033 1.567,0.398 2.451,0.929 2.832,1.145 3.171,1.357 3.437,1.535 3.454,1.81 3.469,2.146 3.469,2.518 3.526,3.687 3.176,5.163 2.993,5.313 l -10e-4,0 -0.023,0.013 -28.335,16.358 c -0.02,0.012 -10.545,6.087 -21.988,12.694 l -28.323,16.353 c -0.012,0.004 -0.049,0.01 -0.106,0.01 -0.402,0.034 -1.571,-0.397 -2.455,-0.928 -0.381,-0.215 -0.72,-0.43 -0.985,-0.608 -0.017,-0.274 -0.032,-0.613 -0.032,-0.983 -0.059,-1.173 0.296,-2.655 0.478,-2.798 l 0.001,0.002 28.355,-16.367 c 11.44,-6.608 21.964,-12.684 21.988,-12.698 L -0.104,0.007 C -0.085,0.004 -0.052,0 0,0 M -1.772,-2.941 -30.127,13.43 c 0,0 -10.548,6.087 -21.988,12.694 l -28.354,16.371 c -1.211,0.737 -1.619,1.867 -1.874,2.846 -0.245,1.003 -0.296,2.016 -0.299,2.881 0,1.18 0.116,2.077 0.119,2.125 l 0.088,0.707 0.568,0.428 c 0.17,0.028 2.969,2.504 6.084,2.646 0.558,0 1.183,-0.108 1.772,-0.448 l 28.35,-16.371 c 11.447,-6.604 21.992,-12.695 21.989,-12.695 L 4.683,8.243 C 5.896,7.506 6.302,6.377 6.556,5.4 6.801,4.397 6.852,3.384 6.855,2.518 6.855,1.338 6.743,0.439 6.736,0.395 L 6.651,-0.313 6.08,-0.744 C 5.91,-0.774 3.108,-3.244 0,-3.387 c -0.555,0 -1.18,0.106 -1.772,0.446"
             style="fill:#fab20b;fill-opacity:1;fill-rule:nonzero;stroke:none"
             id="path2934" /></g><g
           id="g2936"
           transform="translate(708.5049,403.0068)"><path
             d="m 0,0 c 0,0 0.634,-5.104 -1.219,-6.175 l -28.353,-16.368 c -11.443,-6.607 -21.989,-12.696 -21.989,-12.696 l -28.353,-16.369 c -1.845,-1.066 -5.985,2.078 -5.985,2.078 0,0 -0.633,5.103 1.219,6.174 l 28.355,16.371 c 0,0 10.545,6.089 21.989,12.694 L -5.983,2.079 C -4.139,3.144 0,0 0,0"
             style="fill:#fab20b;fill-opacity:1;fill-rule:nonzero;stroke:none"
             id="path2938" /></g><g
           id="g2940"
           transform="translate(703.3398,403.6055)"><path
             d="m 0,0 0,0.002 c 0,0 -0.001,0 0,-0.002 m -78.132,-49.805 c 0.887,-0.53 2.053,-0.963 2.454,-0.929 0.054,0 0.092,0.005 0.108,0.008 l 28.328,16.357 c 0.021,0.01 10.546,6.086 21.989,12.693 l 28.327,16.354 0,0.001 c 0.01,0.01 0.037,0.044 0.072,0.105 0.068,0.115 0.16,0.343 0.227,0.629 0.144,0.575 0.204,1.378 0.201,2.075 0,0.369 -0.012,0.705 -0.029,0.981 C 3.279,-1.354 2.939,-1.137 2.558,-0.922 1.674,-0.391 0.503,0.045 0.105,0.011 0.054,0.011 0.022,0.006 0.007,0.002 l -28.331,-16.358 c -11.447,-6.605 -21.968,-12.682 -21.992,-12.695 L -78.65,-45.408 c -0.01,-0.01 -0.034,-0.04 -0.068,-0.103 -0.071,-0.114 -0.159,-0.34 -0.227,-0.625 -0.147,-0.575 -0.204,-1.378 -0.201,-2.077 0,-0.371 0.013,-0.707 0.03,-0.982 0.265,-0.178 0.603,-0.395 0.984,-0.61 m 2.454,-4.312 c -3.111,0.142 -5.91,2.611 -6.08,2.638 l -0.568,0.432 -0.088,0.707 c -0.007,0.045 -0.119,0.944 -0.119,2.127 0,0.863 0.054,1.877 0.295,2.883 0.256,0.976 0.663,2.105 1.875,2.844 l 28.357,16.369 c 0,0 10.542,6.088 21.988,12.695 L -1.67,2.945 c 0.592,0.34 1.218,0.452 1.775,0.452 C 3.217,3.252 6.02,0.779 6.188,0.749 L 5.165,-0.598 6.188,0.749 6.757,0.32 6.846,-0.391 C 6.849,-0.436 6.961,-1.332 6.961,-2.512 6.961,-3.377 6.906,-4.386 6.665,-5.393 6.407,-6.369 6.002,-7.498 4.791,-8.239 L -23.56,-24.607 c -11.443,-6.608 -21.988,-12.698 -21.992,-12.698 l -28.354,-16.37 c -0.586,-0.335 -1.198,-0.442 -1.746,-0.442 l -0.026,0 z"
             style="fill:#fab20b;fill-opacity:1;fill-rule:nonzero;stroke:none"
             id="path2942" /></g><g
           id="g2944"
           transform="translate(196.6899,319.0898)"><path
             d="m 0,0 c 0,23.059 1.987,44.648 5.964,64.738 3.974,20.092 9.997,39.877 18.104,59.354 8.094,19.475 18.107,38.99 30.023,58.555 7.178,11.918 13.539,20.227 18.103,25.778 4.715,5.737 9.708,11.8 16.582,11.8 7.493,0 11.23,-2.059 11.23,-6.184 0,-1.38 -3.517,-9.662 -10.543,-24.869 C 82.43,173.974 75.824,158.048 69.64,141.397 63.449,124.737 57.719,103.961 52.462,79.06 47.181,54.16 44.551,27.799 44.551,0 c 0,-27.502 2.589,-53.553 7.787,-78.157 5.193,-24.591 12.552,-45.909 19.202,-63.933 6.65,-18.023 11.848,-34.189 18.489,-48.47 6.651,-14.281 9.977,-22.036 9.977,-23.256 0,-4.125 -3.737,-6.184 -11.23,-6.184 -7.026,0 -11.847,7.02 -16.582,12.365 -4.738,5.355 -10.77,13.9 -18.103,25.676 -12.071,20.155 -22.045,39.598 -29.912,58.314 -7.871,18.719 -13.858,38.164 -17.983,58.332 C 2.062,-45.15 0,-23.377 0,0"
             style="fill:#1476c6;fill-opacity:1;fill-rule:nonzero;stroke:none"
             id="path2946" /></g></g></g></g></svg>