<?xml version="1.0" encoding="UTF-8" standalone="no"?>
<!DOCTYPE svg PUBLIC "-//W3C//DTD SVG 1.1//EN" "http://www.w3.org/Graphics/SVG/1.1/DTD/svg11.dtd">
<svg width="100%" height="100%" viewBox="0 0 24 24" version="1.1" xmlns="http://www.w3.org/2000/svg" xmlns:xlink="http://www.w3.org/1999/xlink" xml:space="preserve" xmlns:serif="http://www.serif.com/" style="fill-rule:evenodd;clip-rule:evenodd;stroke-linejoin:round;stroke-miterlimit:2;">
    <path d="M4,1.5C2.895,1.5 2,2.395 2,3.5L2,4.5C2,4.557 2.002,4.613 2.007,4.668C0.838,5.078 0,6.191 0,7.5L0,19.5C0,21.157 1.343,22.5 3,22.5L21,22.5C22.657,22.5 24,21.157 24,19.5L24,7.5C24,5.843 22.657,4.5 21,4.5L11.874,4.5C11.43,2.775 9.864,1.5 8,1.5L4,1.5ZM9.732,4.5C9.387,3.902 8.74,3.5 8,3.5L4,3.5L4,4.5L9.732,4.5ZM3,6.5C2.448,6.5 2,6.948 2,7.5L2,19.5C2,20.052 2.448,20.5 3,20.5L21,20.5C21.552,20.5 22,20.052 22,19.5L22,7.5C22,6.948 21.552,6.5 21,6.5L3,6.5Z" style="fill:rgb(222,227,234);"/>
</svg>
