<?xml version="1.0" encoding="UTF-8" standalone="no"?>
<!DOCTYPE svg PUBLIC "-//W3C//DTD SVG 1.1//EN" "http://www.w3.org/Graphics/SVG/1.1/DTD/svg11.dtd">
<svg width="100%" height="100%" viewBox="0 0 24 24" version="1.1" xmlns="http://www.w3.org/2000/svg" xmlns:xlink="http://www.w3.org/1999/xlink" xml:space="preserve" xmlns:serif="http://www.serif.com/" style="fill-rule:evenodd;clip-rule:evenodd;stroke-linejoin:round;stroke-miterlimit:2;">
    <g transform="matrix(0.0374221,0,0,0.0374221,12.0001,11.9593)">
        <g id="mail" transform="matrix(1,0,0,1,-256,-256)">
            <clipPath id="_clip1">
                <rect x="0" y="0" width="512.001" height="512.001"/>
            </clipPath>
            <g clip-path="url(#_clip1)">
                <path d="M499.628,407.468C489.5,419.628 474.494,426.662 458.668,426.668L53.334,426.668C37.508,426.662 22.502,419.628 12.374,407.468L208.001,244.481L228.268,258.348C244.963,269.868 267.04,269.868 283.735,258.348L304.002,244.481L499.628,407.468Z" style="fill:rgb(30,136,229);fill-rule:nonzero;"/>
                <path d="M502.614,108.588L304.001,244.481L283.734,258.348C267.039,269.868 244.962,269.868 228.267,258.348L208,244.481L9.388,108.374C19.382,93.963 35.797,85.357 53.335,85.334L458.668,85.334C476.285,85.241 492.781,93.969 502.614,108.588Z" style="fill:rgb(100,181,246);fill-rule:nonzero;"/>
                <g>
                    <path d="M208.001,244.481L12.374,407.468C4.367,397.898 -0.014,385.813 0.001,373.335L0.001,138.668C-0.064,127.845 3.215,117.265 9.388,108.375L208.001,244.481Z" style="fill:rgb(33,150,243);fill-rule:nonzero;"/>
                    <path d="M512.001,138.668L512.001,373.335C512.015,385.813 507.635,397.898 499.628,407.468L304.001,244.481L502.614,108.588C508.756,117.414 512.033,127.915 512.001,138.668Z" style="fill:rgb(33,150,243);fill-rule:nonzero;"/>
                </g>
            </g>
        </g>
    </g>
</svg>
