<?xml version="1.0" encoding="UTF-8" standalone="no"?>
<!DOCTYPE svg PUBLIC "-//W3C//DTD SVG 1.1//EN" "http://www.w3.org/Graphics/SVG/1.1/DTD/svg11.dtd">
<svg width="100%" height="100%" viewBox="0 0 24 24" version="1.1" xmlns="http://www.w3.org/2000/svg" xmlns:xlink="http://www.w3.org/1999/xlink" xml:space="preserve" xmlns:serif="http://www.serif.com/" style="fill-rule:evenodd;clip-rule:evenodd;stroke-linejoin:round;stroke-miterlimit:2;">
    <g transform="matrix(0.040295,0,0,0.040295,1.68449,2.24911)">
        <g>
            <g>
                <g>
                    <g>
                        <path d="M246.655,327.736C246.303,327.458 212.638,301.001 180.995,301.001C146.977,301.001 111.906,314.801 111.554,314.933C106.925,316.764 101.68,316.207 97.578,313.41C88.062,306.998 91.813,296.468 90.985,289.297C90.985,244.805 98.984,215.242 114.718,173.051C116.124,169.316 118.937,166.297 122.57,164.642C126.204,163.016 130.305,162.855 134.055,164.246L256.001,209.968L377.946,164.246C381.667,162.84 385.798,162.986 389.431,164.642C393.063,166.298 395.876,169.316 397.283,173.051C413.017,215.243 421.016,244.805 421.016,289.297C420.196,296.407 423.914,307.016 414.423,313.41C410.292,316.208 405.047,316.779 400.447,314.933C400.095,314.801 365.024,301.001 331.006,301.001C304.549,301.001 274.663,320.279 265.374,327.722C260.017,332.016 252.18,332.132 246.655,327.736Z" style="fill:rgb(71,86,140);fill-rule:nonzero;"/>
                    </g>
                </g>
            </g>
        </g>
        <path d="M265.376,327.721C274.665,320.279 304.551,301 331.008,301C365.026,301 400.097,314.8 400.449,314.932C405.049,316.778 410.294,316.206 414.425,313.409C423.941,306.997 420.19,296.467 421.018,289.296C421.018,244.804 413.019,215.241 397.285,173.05C395.879,169.315 393.066,166.296 389.433,164.641C385.799,162.986 381.668,162.839 377.948,164.245L256.003,209.967L256.003,330.963C259.349,330.964 262.676,329.886 265.376,327.721Z" style="fill:rgb(41,55,109);fill-rule:nonzero;"/>
        <g>
            <path d="M466.021,391.009C457.729,391.009 451.019,384.299 451.019,376.008L451.019,147.383C451.019,139.091 457.729,132.381 466.021,132.381C474.313,132.381 481.022,139.091 481.022,147.383L481.022,376.008C481.022,384.299 474.313,391.009 466.021,391.009Z" style="fill:rgb(112,76,85);fill-rule:nonzero;"/>
        </g>
        <g id="Mortarboard_1_">
            <g>
                <path d="M250.727,240.042L9.705,150.034C-3.219,145.187 -3.251,126.794 9.705,121.935L250.727,31.927C254.125,30.667 257.876,30.667 261.275,31.927L502.297,121.935C515.191,126.771 515.295,145.217 502.238,150.048C499.234,151.175 245.33,246.022 261.275,240.041C257.968,241.268 254.266,241.354 250.727,240.042Z" style="fill:rgb(97,114,155);fill-rule:nonzero;"/>
            </g>
            <path d="M466.021,361.006C440.354,361.006 421.017,393.25 421.017,436.013L421.017,466.016C421.017,474.308 427.726,481.017 436.018,481.017L496.024,481.017C504.315,481.017 511.025,474.308 511.025,466.016L511.025,436.013C511.025,393.25 491.687,361.006 466.021,361.006Z" style="fill:rgb(255,153,187);fill-rule:nonzero;"/>
        </g>
        <g>
            <path d="M466.021,391.009C457.729,391.009 451.019,384.299 451.019,376.008L451.019,147.383C451.019,139.091 457.729,132.381 466.021,132.381C474.313,132.381 481.022,139.091 481.022,147.383L481.022,376.008C481.022,384.299 474.313,391.009 466.021,391.009Z" style="fill:rgb(250,190,44);fill-rule:nonzero;"/>
        </g>
        <path d="M466.021,361.006C440.354,361.006 421.017,393.25 421.017,436.013L421.017,466.016C421.017,474.308 427.726,481.017 436.018,481.017L496.024,481.017C504.315,481.017 511.025,474.308 511.025,466.016L511.025,436.013C511.025,393.25 491.687,361.006 466.021,361.006Z" style="fill:rgb(255,230,102);fill-rule:nonzero;"/>
        <path d="M261.275,240.042C245.329,246.023 499.234,151.175 502.238,150.049C515.299,145.216 515.187,126.77 502.297,121.936L261.275,31.928C259.576,31.298 257.789,30.983 256.002,30.983L256.002,240.978C257.812,240.976 259.594,240.665 261.275,240.042Z" style="fill:rgb(71,86,140);fill-rule:nonzero;"/>
    </g>
</svg>
